<?xml version="1.0" encoding="UTF-8"?>
<svg id="Camada_1" xmlns="http://www.w3.org/2000/svg" version="1.1" viewBox="0 0 1024 1024">
  <!-- Generator: Adobe Illustrator 29.8.1, SVG Export Plug-In . SVG Version: 2.1.1 Build 2)  -->
  <defs>
    <style>
      .st0 {
        fill: #d3d0cb;
      }

      .st1 {
        fill: #fff;
      }

      .st2 {
        display: none;
      }
    </style>
  </defs>
  <g>
    <path class="st0" d="M775.3,448.2c-7.1-39.8-22.1-69-51.4-97.7-4.2-3.8-8.8-8-.3-5.7,5.7,1.6,12.7,4.5,17.9,7.5,3.4,1.8,6,3.6,7.5,3.3,1.2-.5.5-3.1-1-6.8-2.2-4.9-5.6-11.2-8.9-16.4-12.3-20.3-27.7-36-45.5-51.7-6.7-6.1-16.9-14.1-23.7-17.2-3.6-1.8-7.2-3.6-10.9-5-2.8-1.1-6.3-2-3.4-2.7,5.8-.7,21.2.8,28.9,2.5,2.8.2,12.6,3.5,12.5,1.5-5.1-5.8-15.9-10.6-23.4-14.3-10.6-4.8-19.8-8.6-30.7-11-7.1-2-16.8-1.5-23.5-3-2.1-.7,6.7-3.1,11.1-3.6,5.2-.8,10.8-1.3,15.8-1.1,4.5,0,9.3.6,10.4,0,.4-.2.4-.4.2-.8-6.9-5.5-19.6-9-28.5-11.2-13.2-2.8-26-3.6-39.2-3.2-8.1,0-18.5,2.8-26.1,3.9-5,.1,6.7-5.4,8.2-6.1,2.7-1.8,18.1-5.3,9.4-6.2-16.9-1.3-36.3.8-52.6,6.6-6.4,1.9-13.5,7-19,9.9-.1,0-.2,0-.1,0,0-.5,3.9-4.3,7.3-7.2,2.1-1.8,4.3-3.5,6.4-4.9,8.2-5.4,9.3-6.8.4-4.7-9.1,2.5-18,5.6-26.1,10-5.7,2.8-11.1,7.6-16.3,10.6-3.5.9,1.7-5.9,2.4-7.1,4.3-6.2-13.7,3.8-14.9,5.1-12,8.3-23.4,16.8-34.3,26.3-14.2,12.5-11.7,14.9-32.2,14.9-20.7,0-40.2,2.7-60.8,6.9-34.8,7.7-68.1,22.4-92.1,51.5-7.2,9.7-15.4,25.9-19.8,37.7-.6,1.6-1.3,3.2-1.7,4.5-.2.5,0,.7.6.6l2.4-.4c2.2-.3,4.1-.5,6.4-.8,5.7-.7,9.8-1.1,16.1-1.7,27.4-2.3,52.8-5,81.8-2.5,22.6,1.9,46.5,3.4,67.1,13.2,33.7,14.5,48.2,49.8,40.6,82.2-6.6,29.3-24.7,45.9-40.5,67.8-4.4,5.8-28.3,44.8-14.5,40.9,3.9.1,26.7-20.1,21-8.6-5.8,10.1-8.8,20.9-10.1,33-4.1,23.9-3.1,52.6,7.1,74.8,1.9,3.3,3.1,3.3,3.9-.1,1.1-4.5,1.8-9.5,3.5-14.3,1.7-4.6,6.1-17.7,10.5-19.5.8,0,1.3,1.3,1.5,3.4.3,2.6,0,6.2,0,9.1,0,6.4,2.8,38.3,20.3,69.5,5.9,10.5,15.7,25.4,31.4,40.1,9.3,8.2,14.6,12.8,15,11,0-.4-.5-4-.6-5.2-.3-3-.6-5.2-.2-9.6,1-10.4,4.6-20.4,8.6-30,4.2-9.7,10.5-19.6,15.6-28.2,10.2-17.9,24-34.9,38.2-50.2,16.4-17.4,61.4-63.2,68.4-57.8.2,8.4-14.2,27.5-20.3,34.5-1.9,2.2-4.1,4.5-6.2,6.6-9.5,9.1-11.4,12.1.7,8.5,8.9-3,19.2-7.9,27.6-12.4,13-7,25.3-13.8,36.6-24.3,8.2-7.5,14.7-16.1,20.1-26,9.3-14.3,14.3-43.1,19-38,5,7,5,28.2,5.9,39.1.6,3.9-.7,17.3,4,13.7,10.1-11.1,14.2-30.5,17.1-44.9.6-1.9,1-10.7,4.2-6.4,6,12.3,7.1,26.3,8,40,1.5,13.7-3.6,43.1,4.4,26.7,6.7-14.5,14.5-29.8,17.3-44.5,2.1-9.9,2.5-19.2,2.5-28.7,0-14.3,0-25.4-3.5-44.1-3.1-15.3-7.7-28-14.4-41.8-4.4-9.2-8.3-15.4-10.9-21.8-1.5-5.2,5.8.3,7.3,1.5,5.8,4.8,10.2,9.3,15.1,15.3,2.3,2.9,4.6,6,6.8,9.1,8.8,12.9,14.6,26.3,12.4,6.2ZM520.8,289.4c6.4,0,11.5,5.2,11.5,11.5s-5.2,11.5-11.5,11.5-11.5-5.2-11.5-11.5,5.2-11.5,11.5-11.5ZM407.3,328.3c-13.6-1.5-27.7-2-41.6-2.2-20.2-.3-40.8-.6-60.7,2-12.8,2-25.6,3.4-37.7,7.8-2,.6-6,3.1-4.5.3h0c4.7-7.1,11.1-12.1,17.8-16.9,8.5-6.3,17-11.6,26.4-15.6,12.4-5.7,25.8-10.4,39.2-12.8,14.7-2.3,32-4.3,47.2-4.1,8.2.2,18.2-.3,26.1.7,1.4.5-2.7,1.5-5.2,2.2-4.4,1.2-7.8,2.1-12.4,3.4-5.9,1.7-11.9,3.5-16.5,5.3-1.9.7-4.8,1.9-6.6,2.9-1,.5-1.5.9-1.5,1.2.6.7,2.5.4,4.7.5,4.8,0,10.3.4,15,1,8.3,1,16.8,2.5,25.1,4.3,7.6,1.6,12.4,2.4,17.6,4.1,14.7,4.9,28.6,13.1,40,23.5,2.8,2.5,5.9,5.8,8.3,8.5,1,1.2,1.7,2,1.5,2.2-.4.4-3.6-1.1-4.6-1.5-9-4-19.8-6.3-29.4-8.7-15.6-3.6-32.2-6.1-48.5-8.2ZM478.3,533.9c-2.9,3.7-3.7,4.7-5,6-2.2,2.3-3.3,3.4-4.9,4-.8.3-3.3,1.2-5.9,0-1.9-.9-2.8-2.5-3.1-3-2-3.5-.3-7.3,0-7.8.4-.8.8-1.5,5.1-5,2.9-2.3,4.7-3.8,8-6.1,1.5-1.1,3-2.1,6-4,6.1-4,7.5-4.8,11-7.2,2.4-1.6,4.3-3,5.7-4-.7,1.8-1.9,4.7-3.8,7.9-1,1.8-1.2,1.8-3.9,6.2-3.2,5.1-3.4,5.7-5,7.9-.3.3-1.5,1.9-4,5ZM533.7,546.6c-2,4.8-4.2,9.4-5.9,14.3-5.5,14.9-9.6,30.1-15,45.1-1.8,5.3-3.5,11.1-7.7,14.9-8.5,8.8-21,2.8-21.1-8.9,0-2.4.5-4.8,1.4-7,5.5-11.5,11.6-21.1,19.7-31.5,6-7.2,12.6-14.5,19.2-20.9h.1c1.2-1.1,10.9-10.3,9.3-6ZM577.9,528.4c-3.2,3.6-8.1,5.2-12.6,2.9-4.4-2.1-6.1-7.7-5.4-12.2,1.1-5.5,5.9-11.9,9.5-17.3,5.5-8.2,8.8-16.1,12.4-26.4.2-.7.6-2,1-2.3h0c.5-.2.8,1.4.9,1.9,4.1,17.3,9.4,38.4-5.8,53.3ZM645.2,492.5c-.7,4-4.1,8-8.5,8.1-3,.2-6.3-1.4-8.8-3.1-7.1-6.6-5.1-16.8-6.7-25.2-1.9-10-4.6-20.3-10.9-28.1,0,0,0-.1,0,0,16,10.1,35.6,27.5,34.8,48.4ZM685.2,438.4c0,1.4,0,1.4-.2,2.1-.2,1.1-.9,2.8-1.6,3.7l-.5.6c-.9,1.2-2.1,2.2-3.4,2.8l-.8.4c-.8.4-1.6.6-2.4.8l-1.2.2c-1.1.2-2.1.2-3.2,0-1.3-.2-2.5-.6-3.6-1.2l-.5-.3c-.4-.3-.9-.5-1.3-.9-5.1-4.5-7-12.8-8.9-19-2-6.4-6.2-14.8-9.5-20.6-8.9-13.5-20.7-26-33.6-35.7,0,0,0,0,0,0,23.9,7.6,46.9,23.1,61.9,43.4,3.8,6.6,8.9,14.3,8.9,22.7s0,0,0,1Z"/>
    <g class="st2">
      <path class="st1" d="M489.8,346.7c.1-.3-.5-1.1-1.5-2.2-2.4-2.7-5.5-6-8.3-8.5-11.5-10.4-25.3-18.6-40-23.5-5.2-1.7-10-2.6-17.6-4.1-8.3-1.9-16.8-3.3-25.1-4.3-4.7-.6-10.2-1-15-1-2.2-.1-4.1.2-4.7-.5,0-.3.5-.7,1.5-1.2,1.8-1,4.7-2.1,6.6-2.9,4.6-1.8,10.7-3.6,16.5-5.3,4.6-1.3,8-2.2,12.4-3.4,2.5-.7,6.6-1.7,5.2-2.2-7.9-1-17.9-.4-26.1-.7-15.2-.2-32.6,1.8-47.2,4.1-13.4,2.5-26.8,7.1-39.2,12.8-9.5,4-18,9.3-26.4,15.6-6.7,4.8-13.2,9.8-17.8,16.7h0c-1.6,2.9,2.5.5,4.5-.1,12.1-4.4,24.9-5.8,37.7-7.8,20-2.6,40.5-2.3,60.7-2,13.9.3,28,.7,41.6,2.2,16.3,2.1,32.9,4.5,48.5,8.2,9.6,2.4,20.4,4.7,29.4,8.7,1.1.4,4.2,1.9,4.6,1.5Z"/>
      <circle class="st1" cx="520.8" cy="300.9" r="11.5" transform="translate(-41.5 87.3) rotate(-9.2)"/>
      <path class="st1" d="M614.5,371.3s0,0,0,0c12.9,9.7,24.7,22.2,33.6,35.7,3.3,5.8,7.5,14.2,9.5,20.6,1.9,6.2,3.7,14.5,8.9,19,.4.3.8.6,1.3.9l.5.3c1.1.6,2.3,1.1,3.6,1.2,1.1.1,2.1.1,3.2,0l1.2-.2c.8-.2,1.6-.4,2.4-.8l.8-.4c1.4-.7,2.5-1.6,3.4-2.8l.5-.6c.7-.9,1.4-2.6,1.6-3.7.1-.7.2-.7.2-2.1,0-1.1,0-.7,0-1,0-8.4-5-16.2-8.9-22.7-15-20.3-37.9-35.8-61.9-43.4Z"/>
      <path class="st1" d="M610.5,444.2c0,0-.1,0,0,0,6.3,7.7,9,18.1,10.9,28.1,1.6,8.4-.4,18.5,6.7,25.2,2.4,1.7,5.7,3.3,8.8,3.1,4.3-.1,7.7-4.1,8.5-8.1.9-20.9-18.8-38.3-34.8-48.4Z"/>
      <path class="st1" d="M582.8,473.1h0c-.4.3-.8,1.6-1,2.3-3.6,10.3-6.9,18.1-12.4,26.4-3.5,5.4-8.3,11.9-9.5,17.3-.7,4.5,1,10.1,5.4,12.2,4.5,2.3,9.4.7,12.6-2.9,15.3-15,10-36,5.8-53.3-.2-.5-.4-2.1-.9-2Z"/>
      <path class="st1" d="M491.2,514.8c1.9-3.3,3.1-6.1,3.8-7.9-1.4,1-3.3,2.4-5.7,4-3.5,2.4-5,3.2-11,7.2-2.9,1.9-4.4,2.9-6,4-3.3,2.3-5.1,3.8-8,6.1-4.2,3.5-4.7,4.2-5.1,5-.3.6-2,4.3,0,7.8.3.5,1.2,2.1,3.1,3,2.6,1.2,5.2.3,5.9,0,1.6-.6,2.8-1.8,4.9-4,1.3-1.3,2.1-2.3,5-6,2.5-3.1,3.7-4.7,4-5,1.6-2.3,1.8-2.8,5-7.9,2.8-4.4,2.9-4.4,3.9-6.2Z"/>
      <path class="st1" d="M524.5,552.5h-.1c-6.6,6.5-13.2,13.8-19.2,21-8,10.4-14.2,20.1-19.7,31.5-.9,2.2-1.4,4.6-1.4,7,0,11.7,12.5,17.6,21.1,8.9,4.2-3.8,5.9-9.6,7.7-14.9,5.3-15,9.4-30.2,15-45.1,1.7-4.9,3.9-9.5,5.9-14.3,1.6-4.4-8,4.9-9.3,5.8Z"/>
    </g>
  </g>
  <g>
    <circle class="st0" cx="695.1" cy="187.8" r="7.7"/>
    <circle class="st0" cx="685.8" cy="222" r="4.5"/>
    <ellipse class="st0" cx="731" cy="209.2" rx="4.2" ry="3.5"/>
    <circle class="st0" cx="731" cy="243.6" r="7.2"/>
    <circle class="st0" cx="745.2" cy="273.8" r="4.1"/>
  </g>
</svg>